:SAMPLES-PER-SECOND 30
:FULLY-SPECIFIED
:DEGREES
455
root  -27.9007 38.0028 -28.6091 -62.103 -79.0066 61.6916
RightUpLeg  -29.5912 -14.9073 -11.6298
RightLeg  6.90516 -10.523 3.52632
RightFoot  14.5839 -0.0508469 0.64942
RightToes  0.000482159 0.542163 -0.142577
Spine  34.8654 -3.59341 -0.283853
Spine1  8.86391 -4.15136 -0.145389
HEad  -4.58923 0.0153257 -7.3079
LeftShoulder1  10.0748 -16.7353 -43.2888
LeftArm  -9.52875 -10.2741 -22.8223
LeftForeArm  2.66102 -51.9953 -14.2365
LeftHand  -0.25398 0.0180481 5.50724
RightShoulder  4.94475 9.65528 31.6315
RightArm  -11.0969 -5.88952 26.3595
RightForeArm  -14.9901 73.7346 48.798
RightHand  0.390436 -7.6555 -21.1963
LeftUpLeg  -14.5194 12.398 -12.6642
LeftLeg  45.6376 4.71044 5.61504
LeftFoot  -14.976 -0.0177116 -3.31906
LeftToes  1.06248e-005 4.65854e-005 -8.185e-006
456
root  -28.7417 37.6215 -28.951 -51.9789 -80.1355 52.6879
RightUpLeg  -34.312 -18.9111 -7.05563
RightLeg  13.5573 -5.59088 3.35826
RightFoot  17.8958 0.94737 -3.20935
RightToes  0.000482159 0.542163 -0.142577
Spine  37.8836 -4.86538 4.41
Spine1  8.2678 -3.56178 -1.70391
HEad  -7.56516 -1.85689 -7.02021
LeftShoulder1  10.1515 -17.3664 -42.2301
LeftArm  -8.50235 -14.8278 -23.8995
LeftForeArm  0.719568 -48.2778 -12.5407
LeftHand  -0.25398 0.0180481 5.50724
RightShoulder  4.97378 9.97245 30.9593
RightArm  -12.9095 -3.85609 26.3708
RightForeArm  -19.9801 72.4307 44.0099
RightHand  0.286158 -7.07724 -21.216
LeftUpLeg  -22.2269 14.006 -10.4617
LeftLeg  57.3049 4.62675 8.31907
LeftFoot  -6.61803 0.090383 -2.01465
LeftToes  1.06248e-005 4.65854e-005 -8.185e-006
457
root  -29.4202 37.3213 -29.2779 -41.8129 -82.2769 43.6508
RightUpLeg  -39.4624 -24.6967 1.23316
RightLeg  19.2644 1.1201 2.75919
RightFoot  16.2801 1.48675 -5.5931
RightToes  0.000482159 0.542163 -0.142577
Spine  41.1608 -5.62836 8.29202
Spine1  8.18383 -2.79455 -2.18566
HEad  -11.394 -2.88198 -6.87186
LeftShoulder1  10.1109 -18.0607 -40.5793
LeftArm  -9.20471 -19.5144 -25.8051
LeftForeArm  -0.556689 -44.627 -11.09
LeftHand  -0.25398 0.0180481 5.50724
RightShoulder  4.91259 10.4383 29.2578
RightArm  -14.2037 1.01177 26.6559
RightForeArm  -29.129 68.8877 35.0236
RightHand  0.200112 -6.65363 -20.4802
LeftUpLeg  -30.1561 16.6622 -8.2325
LeftLeg  66.0108 4.37415 11.2897
LeftFoot  0.0947626 -0.198823 2.12275
LeftToes  1.06248e-005 4.65854e-005 -8.185e-006
458
root  -30.0302 37.2849 -29.6516 -37.7609 -83.6444 41.154
RightUpLeg  -42.9831 -27.2532 6.94995
RightLeg  22.0348 5.09818 2.51784
RightFoot  13.6389 1.67871 -7.12898
RightToes  0.000482159 0.542163 -0.142577
Spine  44.7165 -5.46741 8.85833
Spine1  8.40452 -2.39996 -1.26338
HEad  -15.5219 -2.87423 -6.85075
LeftShoulder1  9.94951 -18.711 -38.5731
LeftArm  -11.4728 -24.2468 -27.559
LeftForeArm  -1.40191 -40.7799 -9.74281
LeftHand  -0.25398 0.0180481 5.50724
RightShoulder  4.71391 10.8152 26.8712
RightArm  -14.5554 8.7409 27.2961
RightForeArm  -37.8667 62.3729 25.2862
RightHand  0.152123 -6.52393 -18.3323
LeftUpLeg  -36.7863 19.2276 -8.11759
LeftLeg  68.7535 3.75121 11.3695
LeftFoot  0.983532 -0.490953 4.54066
LeftToes  1.06248e-005 4.65854e-005 -8.185e-006
459
root  -30.632 37.4377 -30.0281 -39.442 -83.8114 44.9144
RightUpLeg  -45.1515 -27.9863 9.29495
RightLeg  22.7235 6.85273 2.89817
RightFoot  12.4934 1.76043 -7.90998
RightToes  0.000482159 0.542163 -0.142577
Spine  48.2627 -5.19884 7.63534
Spine1  8.32458 -2.59983 -0.137413
HEad  -19.5833 -2.2185 -6.76479
LeftShoulder1  9.71793 -19.2082 -36.6364
LeftArm  -13.9041 -29.5339 -28.0122
LeftForeArm  -3.0657 -36.1933 -8.38942
LeftHand  -0.25398 0.0180481 5.50724
RightShoulder  4.53473 11.1346 24.8477
RightArm  -14.3599 17.905 27.5452
RightForeArm  -42.9604 54.0065 18.1699
RightHand  0.115491 -6.51184 -15.0654
LeftUpLeg  -41.9607 20.2119 -9.91208
LeftLeg  65.9052 3.12139 8.39673
LeftFoot  -1.44519 -0.326553 3.8146
LeftToes  1.06248e-005 4.65854e-005 -8.185e-006
460
root  -31.2425 37.5942 -30.3498 -38.7786 -83.6035 46.8482
RightUpLeg  -47.7049 -28.5937 11.1826
RightLeg  23.152 7.71844 3.38153
RightFoot  11.8358 1.71703 -7.95409
RightToes  0.000482159 0.542163 -0.142577
Spine  51.0215 -5.30649 7.13197
Spine1  8.59319 -2.88289 0.395905
HEad  -23.6724 -1.85568 -6.63909
LeftShoulder1  9.62864 -19.8275 -35.1451
LeftArm  -16.065 -35.9917 -26.9038
LeftForeArm  -5.94149 -30.7754 -7.0486
LeftHand  -0.25398 0.0180481 5.50724
RightShoulder  4.46414 11.5784 23.3975
RightArm  -14.9738 26.8556 26.4097
RightForeArm  -46.0589 45.6897 13.7784
RightHand  0.0651551 -6.32208 -12.0861
LeftUpLeg  -46.0417 19.4479 -11.8603
LeftLeg  59.2575 2.63229 5.32035
LeftFoot  -3.93793 -0.0707366 1.46014
LeftToes  1.06248e-005 4.65854e-005 -8.185e-006
461
root  -31.8553 37.7601 -30.6367 -36.7935 -83.4767 47.9098
RightUpLeg  -50.5388 -28.8463 13.3353
RightLeg  23.259 8.27333 3.66144
RightFoot  10.9326 1.645 -7.95658
RightToes  0.000482159 0.542163 -0.142577
Spine  52.7421 -5.36047 7.2145
Spine1  9.88134 -2.68808 0.437158
HEad  -27.8546 -2.39823 -6.55107
LeftShoulder1  9.75577 -20.8202 -33.9859
LeftArm  -19.2633 -43.2252 -24.7732
LeftForeArm  -8.30784 -25.5365 -5.89277
LeftHand  -0.25398 0.0180481 5.50724
RightShoulder  4.37556 12.0332 21.8685
RightArm  -17.3989 34.6024 23.6744
RightForeArm  -48.9182 38.5989 11.1024
RightHand  0.0127487 -5.91033 -10.06
LeftUpLeg  -49.0205 18.2429 -13.651
LeftLeg  49.5903 2.39784 3.46457
LeftFoot  -5.75941 0.0649722 -0.617474
LeftToes  1.06248e-005 4.65854e-005 -8.185e-006
